<svg width="521" height="509" viewBox="0 0 521 509" fill="none" xmlns="http://www.w3.org/2000/svg">
<path fill-rule="evenodd" clip-rule="evenodd" d="M378.954 247.458C392.334 261.559 401.33 276.925 405.474 294.955C410.172 315.45 407.858 335.329 400.635 354.894C394.265 372.137 385.4 387.844 372.967 401.405C355.556 420.371 334.13 430.538 309.504 433.617C309.477 392.471 276.053 359.155 234.82 359.155C230.562 359.155 226.376 359.515 222.305 360.207V347.46C226.376 348.151 230.562 348.511 234.82 348.511C276.088 348.511 309.533 315.139 309.533 273.961C309.533 232.783 276.088 199.411 234.82 199.411C193.552 199.411 160.107 232.783 160.107 273.961C160.107 278.08 160.453 282.127 161.089 286.074H148.444C149.094 282.127 149.425 278.095 149.425 273.961C149.425 232.783 115.981 199.411 74.7127 199.411C68.3823 199.411 62.236 200.196 56.3663 201.674C61.9323 187.586 71.7856 175.501 85.5784 165.295C89.4 162.488 93.3419 159.696 97.5836 157.657C101.931 155.602 101.88 153.43 100.141 149.414C90.6186 127.455 87.3883 105.044 96.4939 82.0236C103.172 65.1339 114.717 52.053 129.079 41.4181C158.471 19.6456 192.323 9.26566 227.87 3.33744C265.295 -2.88932 302.185 -0.0967955 338.865 9.16726C366.857 16.2267 393.863 25.5626 417.755 42.1785C455.972 68.8001 472.823 104.966 465.977 151.651C462.697 173.965 455.827 194.725 441.458 212.426C426.659 230.659 407.367 241.574 384.45 246.239C383.569 246.419 382.707 246.614 381.661 246.852L381.658 246.852L381.656 246.853C380.883 247.028 380.01 247.226 378.954 247.458ZM0 273.961C0 239.099 23.971 209.833 56.3663 201.674C52.0111 212.697 50.2807 224.947 51.3416 238.483C53.5729 267.026 65.8209 291.702 81.611 314.855C118.099 368.369 168.334 403.197 229.409 423.305C252.508 430.908 275.977 435.752 300.409 434.427C303.486 434.259 306.518 433.99 309.504 433.617V433.72C309.504 474.898 276.059 508.27 234.791 508.27C193.523 508.27 160.078 474.898 160.078 433.72C160.078 429.5 160.439 425.366 161.117 421.333H148.386C149.065 425.366 149.425 429.5 149.425 433.72C149.425 474.898 115.981 508.27 74.7127 508.27C33.4446 508.27 0 474.898 0 433.72C0 392.541 33.4446 359.17 74.7127 359.17C78.8121 359.17 82.8393 359.501 86.7511 360.135V347.546C82.8249 348.18 78.8121 348.511 74.7127 348.511C33.4446 348.511 0 315.139 0 273.961ZM471.398 273.15C456.274 265.834 440.404 261.427 423.733 259.709C423.112 259.617 422.489 259.536 421.866 259.454C420.332 259.252 418.794 259.049 417.255 258.695C413.775 257.857 412.804 259.186 412.785 262.614C412.738 278.488 413.563 294.229 417.672 309.665C423.377 331.124 434.144 348.913 453.367 360.908C473.017 373.122 494.826 378.063 517.464 380.373C520.927 380.716 520.826 378.713 520.73 376.813C520.711 376.437 520.692 376.065 520.701 375.716C521.057 359.819 519.819 344.116 515.732 328.687C509.099 303.634 495.109 284.617 471.398 273.15Z" fill="#FF6EFD"/>
</svg>
