<svg width="701" height="651" viewBox="0 0 701 651" fill="none" xmlns="http://www.w3.org/2000/svg">
<path d="M429.593 352.081C445.052 368.357 455.447 386.092 460.239 406.899C465.672 430.551 463.004 453.49 454.667 476.065C447.314 495.961 437.08 514.084 422.723 529.729C400.181 554.263 371.806 566.029 338.924 567.814C310.706 569.336 283.595 563.739 256.913 554.959C186.363 531.738 128.33 491.533 86.169 429.769C67.9241 403.046 53.77 374.568 51.1844 341.63C48.3841 306.046 62.3167 278.17 90.7081 257.184C95.1215 253.946 99.6737 250.725 104.572 248.373C109.593 246.003 109.534 243.496 107.524 238.862C96.5188 213.519 92.7811 187.657 103.292 161.095C111.001 141.607 124.332 126.515 140.917 114.247C174.86 89.1308 213.958 77.1626 255.013 70.332C298.24 63.1574 340.85 66.3905 383.219 77.0915C415.554 85.246 446.749 96.0271 474.351 115.208C518.501 145.94 537.974 187.679 530.08 241.55C526.299 267.297 518.369 291.252 501.777 311.674C484.69 332.71 462.41 345.3 435.941 350.676C434.17 351.038 432.468 351.452 429.593 352.081Z" fill="#1C39FF"/>
<path d="M481.318 366.232C500.574 368.219 518.907 373.31 536.377 381.756C563.767 394.995 579.933 416.945 587.601 445.857C592.326 463.662 593.761 481.783 593.355 500.128C593.292 502.565 594.409 505.976 589.617 505.501C563.468 502.828 538.277 497.121 515.576 483.02C493.369 469.173 480.928 448.642 474.333 423.878C469.581 406.064 468.624 387.899 468.674 369.58C468.695 365.625 469.816 364.091 473.835 365.06C476.335 365.635 478.836 365.864 481.318 366.232Z" fill="#1C39FF"/>
</svg>
