<svg width="1052" height="2180" viewBox="0 0 1052 2180" fill="none" xmlns="http://www.w3.org/2000/svg">
<path d="M19.8344 1777.28C36.4167 1728.33 142.999 1740.17 160.764 1739.13C252.728 1733.73 344.523 1726.61 434.165 1703.74C517.552 1682.44 593.732 1645.84 659.41 1589.55C708.403 1547.63 747.208 1497.81 768.938 1436.2C772.182 1426.95 774.189 1417.09 775.222 1407.33C778.123 1379.03 780.205 1350.66 782.696 1322.32C783.787 1309.85 787.372 1306.68 799.717 1307.05C816.654 1307.57 833.592 1308.09 850.472 1308.75C864.524 1309.26 867.805 1313.45 865.358 1327.66C859.77 1359.77 853.772 1391.84 848.801 1424.03C847.769 1430.77 848.846 1438.87 851.803 1444.98C880.587 1503.93 893.357 1565.03 878.139 1630.07C866.581 1679.47 841.493 1721.65 807.925 1759.08C738.861 1836.2 651.995 1884.93 553.486 1911.55C395.145 1954.38 242.065 1935.87 95.2948 1863.33C86.0408 1858.68 3.25203 1826.23 19.8344 1777.28Z" fill="#1C39FF"/>
<mask id="mask0_60_58" style="mask-type:alpha" maskUnits="userSpaceOnUse" x="17" y="1306" width="868" height="628">
<path d="M20.04 1777.04C36.6178 1728.11 143.157 1739.93 160.915 1738.9C252.842 1733.49 344.601 1726.37 434.208 1703.51C517.562 1682.21 593.714 1645.62 659.368 1589.36C708.343 1547.45 747.134 1497.64 768.858 1436.06C772.101 1426.82 774.108 1416.95 775.14 1407.2C778.042 1378.91 780.124 1350.55 782.616 1322.23C783.706 1309.76 787.29 1306.59 799.63 1306.96C816.561 1307.48 833.491 1308 850.365 1308.66C864.411 1309.16 867.691 1313.35 865.244 1327.56C859.657 1359.65 853.659 1391.71 848.689 1423.89C847.657 1430.62 848.733 1438.72 851.689 1444.84C880.459 1503.75 893.222 1564.83 878.007 1629.84C866.451 1679.23 841.372 1721.39 807.815 1758.81C738.776 1835.91 651.943 1884.62 553.472 1911.23C395.193 1954.06 242.174 1935.56 95.4666 1863.05C86.2165 1858.41 3.46227 1825.97 20.04 1777.04Z" fill="#1C39FF"/>
</mask>
<g mask="url(#mask0_60_58)">
<path d="M502.882 1707.05C518.307 1723.33 528.676 1741.07 533.45 1761.89C538.862 1785.56 536.186 1808.51 527.851 1831.11C520.499 1851.03 510.271 1869.17 495.929 1884.83C473.409 1909.4 445.072 1921.19 412.242 1922.99C384.067 1924.53 357.002 1918.94 330.367 1910.17C259.94 1886.97 202.019 1846.76 159.957 1784.97C141.755 1758.24 127.638 1729.75 125.074 1696.79C122.296 1661.18 136.222 1633.27 164.579 1612.26C168.987 1609.01 173.534 1605.79 178.426 1603.43C183.44 1601.06 183.383 1598.55 181.378 1593.91C170.404 1568.56 166.686 1542.68 177.194 1516.09C184.901 1496.58 198.219 1481.47 214.784 1469.19C248.687 1444.03 287.729 1432.04 328.724 1425.18C371.886 1417.98 414.428 1421.19 456.724 1431.88C489.004 1440.02 520.144 1450.79 547.693 1469.97C591.757 1500.71 611.178 1542.47 603.268 1596.38C599.479 1622.15 591.549 1646.13 574.973 1666.57C557.902 1687.63 535.65 1700.24 509.22 1705.64C507.451 1706 505.752 1706.42 502.882 1707.05Z" fill="#FF6EFD"/>
<path d="M554.518 1721.18C573.743 1723.16 592.044 1728.24 609.482 1736.69C636.822 1749.92 652.95 1771.88 660.591 1800.81C665.3 1818.63 666.723 1836.76 666.308 1855.12C666.244 1857.56 667.357 1860.97 662.573 1860.5C636.467 1857.84 611.318 1852.14 588.66 1838.04C566.496 1824.19 554.085 1803.65 547.513 1778.87C542.778 1761.05 541.832 1742.87 541.892 1724.54C541.915 1720.58 543.035 1719.05 547.047 1720.01C549.543 1720.59 552.039 1720.82 554.518 1721.18Z" fill="#FF6EFD"/>
</g>
<path d="M19.8344 687.283C36.4167 638.334 142.999 650.166 160.764 649.128C252.728 643.728 344.523 636.61 434.165 613.737C517.552 592.435 593.732 555.839 659.41 499.552C708.403 457.629 747.208 407.805 768.938 346.201C772.182 336.953 774.189 327.089 775.222 317.333C778.123 289.033 780.205 260.661 782.696 232.324C783.787 219.849 787.372 216.685 799.717 217.052C816.654 217.571 833.592 218.091 850.472 218.751C864.524 219.257 867.805 223.45 865.358 237.66C859.77 269.767 853.772 301.838 848.801 334.033C847.769 340.767 848.846 348.865 851.803 354.984C880.587 413.927 893.357 475.028 878.139 540.065C866.581 589.474 841.493 631.648 807.925 669.082C738.861 746.204 651.995 794.934 553.486 821.55C395.145 864.382 242.065 845.868 95.2948 773.329C86.0408 768.683 3.25203 736.232 19.8344 687.283Z" fill="#1C39FF"/>
</svg>
