<svg width="762" height="32" viewBox="0 0 762 32" fill="none" xmlns="http://www.w3.org/2000/svg">
<rect width="762" height="32" fill="white"/>
<path d="M13 32L24.2 0H69L57.8 32H13Z" fill="#FED700"/>
<path d="M69 32L80.2 0H125L113.8 32H69Z" fill="#FED700"/>
<path d="M125 32L136.2 0H181L169.8 32H125Z" fill="#FED700"/>
<path d="M181 32L192.2 0H237L225.8 32H181Z" fill="#FED700"/>
<path d="M237 32L248.2 0H293L281.8 32H237Z" fill="#FED700"/>
<path d="M293 32L304.2 0H349L337.8 32H293Z" fill="#FED700"/>
<path d="M349 32L360.2 0H405L393.8 32H349Z" fill="#FED700"/>
<path d="M405 32L416.2 0H461L449.8 32H405Z" fill="#FED700"/>
<path d="M461 32L472.2 0H517L505.8 32H461Z" fill="#FED700"/>
<path d="M517 32L528.2 0H573L561.8 32H517Z" fill="#FED700"/>
<path d="M573 32L584.2 0H629L617.8 32H573Z" fill="#FED700"/>
<path d="M629 32L640.2 0H685L673.8 32H629Z" fill="#FED700"/>
<path d="M685 32L696.2 0H741L729.8 32H685Z" fill="#FED700"/>
</svg>
