<svg width="406" height="405" viewBox="0 0 406 405" fill="none" xmlns="http://www.w3.org/2000/svg">
<path d="M308.003 209.469C302.417 209.469 296.927 209.941 291.588 210.848V194.133C296.927 195.04 302.417 195.512 308.003 195.512C362.132 195.512 406 151.752 406 97.756C406 43.7598 362.132 0 308.003 0C253.873 0 210.005 43.7598 210.005 97.756C210.005 103.158 210.46 108.465 211.293 113.64H194.707C195.559 108.465 195.995 103.176 195.995 97.756C195.995 43.7598 152.127 0 97.9974 0C43.8678 0 0 43.7598 0 97.756C0 151.752 43.8678 195.512 97.9974 195.512C103.374 195.512 108.638 195.078 113.788 194.247V210.753C108.657 209.922 103.374 209.488 97.9974 209.488C43.8678 209.488 0 253.248 0 307.244C0 361.24 43.8678 405 97.9974 405C152.127 405 195.995 361.24 195.995 307.244C195.995 301.71 195.521 296.29 194.632 291.002H211.331C210.441 296.29 209.967 301.71 209.967 307.244C209.967 361.24 253.835 405 307.965 405C362.094 405 405.962 361.24 405.962 307.244C406 253.229 362.132 209.469 308.003 209.469Z" fill="#FED700"/>
</svg>
