<svg width="243" height="251" viewBox="0 0 243 251" fill="none" xmlns="http://www.w3.org/2000/svg">
<path d="M243 39.4645C243 17.6661 225.418 0 203.724 0C193.056 0 183.396 4.27092 176.316 11.2042C169.236 4.27092 159.576 0 148.908 0C138.24 0 128.58 4.27092 121.5 11.2042C114.42 4.27092 104.76 0 94.0921 0C83.4243 0 73.7639 4.27092 66.6843 11.2042C59.6046 4.27092 49.9441 0 39.2763 0C17.5818 0 0 17.6661 0 39.4645C0 59.1828 14.394 75.5177 33.2041 78.4574C29.5332 84.4617 27.4079 91.5337 27.4079 99.1049C27.4079 118.823 41.8018 135.158 60.612 138.098C56.941 144.102 54.8157 151.174 54.8157 158.745C54.8157 177.368 67.6641 192.968 84.9285 197.114C83.1759 201.579 82.2099 206.447 82.2099 211.536C82.2099 233.334 99.7917 251 121.486 251C143.181 251 160.763 233.334 160.763 211.536C160.763 206.447 159.796 201.579 158.044 197.114C175.322 192.968 188.157 177.368 188.157 158.745C188.157 151.174 186.031 144.116 182.36 138.098C201.171 135.158 215.564 118.823 215.564 99.1049C215.564 91.5337 213.439 84.4756 209.768 78.4574C228.606 75.5177 243 59.1828 243 39.4645Z" fill="#FF6EFD"/>
</svg>
