<svg width="228" height="90" viewBox="0 0 228 90" fill="none" xmlns="http://www.w3.org/2000/svg">
<g clip-path="url(#clip0_156_114)">
<path fill-rule="evenodd" clip-rule="evenodd" d="M11.1376 24.92H6.62431V44.1608H0V0.384277H6.62431V17.9183H11.1376V0.384277H17.7612V44.1608H11.1376V24.92Z" fill="white"/>
<path fill-rule="evenodd" clip-rule="evenodd" d="M29.3747 44.7366H28.0698C22.7322 44.7366 19.8857 41.8492 19.8857 36.4257V27.643H26.5282V35.3064C26.5282 37.3104 27.1803 38.3707 28.7226 38.3707C30.3236 38.3707 30.917 37.3104 30.917 34.5987V33.5967C30.917 30.4734 30.6203 29.3535 28.1892 26.2295L23.9184 20.8067C21.0719 17.1519 20.2417 14.3228 20.2417 9.96097V8.54679C20.2417 2.71108 23.2063 0 28.4853 0H29.7308C35.2458 0 37.3809 2.41617 37.3809 7.60378V14.7947H30.917V8.48781C30.917 7.01397 30.6203 5.89401 29.0187 5.89401C27.4177 5.89401 27.0616 6.896 27.0616 8.95898V9.78471C27.0616 12.2606 27.5364 13.6157 29.7895 16.5038L34.0596 21.9856C37.0842 25.8756 38.033 28.1162 38.033 33.0665V34.4821C38.033 40.9055 35.2458 44.7366 29.3747 44.7366Z" fill="white"/>
<path fill-rule="evenodd" clip-rule="evenodd" d="M55.249 0.384277V6.73832H46.7924V18.2127H53.4279V24.8618H46.7924V37.5124H55.6008V44.1608H40.1562V0.384277H55.249Z" fill="white"/>
<path fill-rule="evenodd" clip-rule="evenodd" d="M72.9303 29.3927L71.1312 13.2108L69.3927 29.3927H72.9303ZM73.6489 35.9227H68.7335L67.8343 44.1608H61.7783L67.2336 0.384277H75.268L81.084 44.1608H74.5495L73.6489 35.9227Z" fill="white"/>
<path fill-rule="evenodd" clip-rule="evenodd" d="M88.7994 18.3887H90.5914C92.4431 18.3887 93.0408 17.2118 93.0408 15.2702V9.15096C93.0408 7.26823 92.6224 6.32686 90.5914 6.32686H88.7994V18.3887ZM88.7994 44.1608H82.0488V0.384277H92.9817C97.4615 0.384277 99.7317 2.26701 99.7317 7.15047V14.9169C99.7317 18.5653 97.9988 19.977 96.8047 20.5069C98.2977 21.1539 99.7317 22.3314 99.7317 25.2726V40.6302C99.7317 42.3952 100.09 43.2181 100.39 43.8651V44.1608H93.6977C93.3988 43.6898 93.0408 42.9251 93.0408 40.5713V27.3915C93.0408 25.4492 92.6829 24.6256 90.5316 24.6256H88.7994V44.1608Z" fill="white"/>
<path fill-rule="evenodd" clip-rule="evenodd" d="M112.95 6.73832V44.1608H106.363V6.73832H100.776V0.384277H118.537V6.73832H112.95Z" fill="white"/>
<path fill-rule="evenodd" clip-rule="evenodd" d="M133.937 29.3927L132.137 13.2108L130.399 29.3927H133.937ZM134.655 35.9227H129.739L128.84 44.1608H122.784L128.24 0.384277H136.274L142.09 44.1608H135.555L134.655 35.9227Z" fill="white"/>
<path fill-rule="evenodd" clip-rule="evenodd" d="M149.248 0.384277L154.953 23.8609V0.384277H161.01V44.1608H155.6L149.248 18.9768V44.1608H143.249V0.384277H149.248Z" fill="white"/>
<path fill-rule="evenodd" clip-rule="evenodd" d="M170.402 37.8054H172.001C174.014 37.8054 174.607 36.747 174.607 34.3939V9.73974C174.607 7.20935 173.956 6.32686 172.297 6.32686H170.402V37.8054ZM163.712 0.384277H173.956C179.697 0.384277 181.474 3.61984 181.474 8.79837V35.4524C181.474 40.8062 179.461 44.1608 173.956 44.1608H163.712V0.384277Z" fill="white"/>
<path fill-rule="evenodd" clip-rule="evenodd" d="M6.69034 82.9266H8.28853C10.3014 82.9266 10.8939 81.8682 10.8939 79.5151V54.8605C10.8939 52.3307 10.2429 51.4476 8.58475 51.4476H6.69034V82.9266ZM0 45.5049H10.2429C15.9846 45.5049 17.7612 48.7412 17.7612 53.9184V80.5742C17.7612 85.9274 15.7483 89.2815 10.2429 89.2815H0V45.5049Z" fill="white"/>
<path fill-rule="evenodd" clip-rule="evenodd" d="M35.3635 45.5049V51.8597H26.9077V63.3329H33.5432V69.9828H26.9077V82.6336H35.716V89.2815H20.2715V45.5049H35.3635Z" fill="white"/>
<path fill-rule="evenodd" clip-rule="evenodd" d="M46.5565 89.8567H45.2516C39.9139 89.8567 37.0674 86.9688 37.0674 81.5454V72.7636H43.71V80.4262C43.71 82.4301 44.3621 83.491 45.9037 83.491C47.5053 83.491 48.0988 82.4301 48.0988 79.7191V78.7171C48.0988 75.5933 47.8021 74.4734 45.371 71.3495L41.1001 65.9261C38.2536 62.2722 37.4235 59.4439 37.4235 55.0828V53.6673C37.4235 47.8318 40.388 45.1201 45.667 45.1201H46.9126C52.4276 45.1201 54.5626 47.5383 54.5626 52.7237V59.9157H48.0988V53.6084C48.0988 52.1346 47.8021 51.0146 46.2004 51.0146C44.5995 51.0146 44.2434 52.0166 44.2434 54.0795V54.9052C44.2434 57.3803 44.7182 58.7368 46.9712 61.6241L51.2413 67.105C54.2659 70.9956 55.2147 73.2355 55.2147 78.187V79.6018C55.2147 86.0251 52.4276 89.8567 46.5565 89.8567Z" fill="white"/>
<path fill-rule="evenodd" clip-rule="evenodd" d="M56.9775 89.2682H63.7344V45.5503H56.9775V89.2682Z" fill="white"/>
<path fill-rule="evenodd" clip-rule="evenodd" d="M72.5255 89.8568C68.5793 89.8568 66.0684 86.3904 66.0684 81.8655V54.5405C66.0684 49.6642 67.9816 45.1387 74.3796 45.1387H75.6946C82.9302 45.1387 83.7672 49.7811 83.7672 54.9528V59.4189H77.1897V54.4817C77.1897 52.5434 76.711 51.4857 75.0378 51.4857C73.6025 51.4857 72.9443 52.5434 72.9443 54.4817V80.0441C72.9443 82.1 73.7813 83.1584 75.1568 83.1584C76.8912 83.1584 77.6677 81.9831 77.6677 80.3374V69.4081H74.6183V62.709H84.0657V89.2688H80.2391C80.1793 89.0336 79.6415 86.8601 79.103 84.9799C78.6243 86.4492 76.352 89.8568 72.9443 89.8568H72.5255Z" fill="white"/>
<path fill-rule="evenodd" clip-rule="evenodd" d="M92.2958 45.5049L98.0011 68.9812V45.5049H104.058V89.2815H98.6478L92.2958 64.0977V89.2815H86.2969V45.5049H92.2958Z" fill="white"/>
<path fill-rule="evenodd" clip-rule="evenodd" d="M121.655 89.8567H120.35C115.013 89.8567 112.166 86.9688 112.166 81.5454V72.7636H118.808V80.4262C118.808 82.4301 119.46 83.491 121.003 83.491C122.603 83.491 123.196 82.4301 123.196 79.7191V78.7171C123.196 75.5933 122.9 74.4734 120.468 71.3495L116.198 65.9261C113.352 62.2722 112.522 59.4439 112.522 55.0828V53.6673C112.522 47.8318 115.487 45.1201 120.765 45.1201H122.011C127.526 45.1201 129.661 47.5383 129.661 52.7237V59.9157H123.196V53.6084C123.196 52.1346 122.9 51.0146 121.299 51.0146C119.698 51.0146 119.342 52.0166 119.342 54.0795V54.9052C119.342 57.3803 119.816 58.7368 122.069 61.6241L126.339 67.105C129.364 70.9956 130.313 73.2355 130.313 78.187V79.6018C130.313 86.0251 127.526 89.8567 121.655 89.8567Z" fill="white"/>
<path fill-rule="evenodd" clip-rule="evenodd" d="M143.097 80.4386V70.2554H149.619V80.3797C149.619 85.0898 148.091 89.8567 141.687 89.8567H140.218C133.519 89.8567 132.051 85.0302 132.051 80.616V53.891C132.051 49.4186 133.99 45.1201 139.983 45.1201H141.511C148.797 45.1201 149.619 49.948 149.619 54.2451V62.0729H143.097V54.3622C143.097 52.4787 142.51 51.4781 140.865 51.4781C139.219 51.4781 138.808 52.4205 138.808 54.3622V80.3797C138.808 82.3221 139.454 83.3816 140.924 83.3816C142.51 83.3816 143.097 82.2043 143.097 80.4386Z" fill="white"/>
<path fill-rule="evenodd" clip-rule="evenodd" d="M162.88 70.0417H158.366V89.2815H151.743V45.5049H158.366V63.0392H162.88V45.5049H169.504V89.2815H162.88V70.0417Z" fill="white"/>
<path fill-rule="evenodd" clip-rule="evenodd" d="M183.528 54.8334C183.528 52.5376 182.757 51.4781 181.214 51.4781C179.493 51.4781 178.839 52.5972 178.839 54.8334V80.027C178.839 81.9104 179.373 83.3816 181.273 83.3816C183.054 83.3816 183.528 81.9104 183.528 80.027V54.8334ZM190.354 79.5564C190.354 85.6774 188.276 89.8567 181.807 89.8567H180.679C174.268 89.8567 172.014 85.6774 172.014 79.5564V55.1862C172.014 49.1234 174.329 45.1201 180.619 45.1201H181.748C188.276 45.1201 190.354 49.1234 190.354 55.1273V79.5564Z" fill="white"/>
<path fill-rule="evenodd" clip-rule="evenodd" d="M203.8 54.8334C203.8 52.5376 203.027 51.4781 201.485 51.4781C199.764 51.4781 199.11 52.5972 199.11 54.8334V80.027C199.11 81.9104 199.644 83.3816 201.543 83.3816C203.324 83.3816 203.8 81.9104 203.8 80.027V54.8334ZM210.625 79.5564C210.625 85.6774 208.548 89.8567 202.078 89.8567H200.95C194.54 89.8567 192.285 85.6774 192.285 79.5564V55.1862C192.285 49.1234 194.599 45.1201 200.891 45.1201H202.019C208.548 45.1201 210.625 49.1234 210.625 55.1273V79.5564Z" fill="white"/>
<path fill-rule="evenodd" clip-rule="evenodd" d="M219.828 45.5049V82.5152H228V89.2815H213.135V45.5049H219.828Z" fill="white"/>
</g>
<defs>
<clipPath id="clip0_156_114">
<rect width="228" height="90" fill="white"/>
</clipPath>
</defs>
</svg>
