<svg width="1044" height="625" viewBox="0 0 1044 625" fill="none" xmlns="http://www.w3.org/2000/svg">
<path fill-rule="evenodd" clip-rule="evenodd" d="M859.248 451.839C853.709 474.039 843.009 493.387 823.898 506.65C796.85 525.401 767.823 529.483 737.075 515.981C720.539 508.712 705.71 498.734 691.051 488.392C684.606 483.841 678.186 479.251 671.765 474.661C667.735 471.78 663.705 468.899 659.668 466.027C680.973 439.093 696.866 409.166 704.86 375.018C717.326 321.78 706.865 271.763 683.287 223.513C680.865 218.504 679.983 211.875 680.828 206.362C683.744 187.492 687.09 168.674 690.437 149.861C691.764 142.398 693.091 134.936 694.391 127.472C696.395 115.839 693.708 112.407 682.197 111.993C672.399 111.61 662.577 111.285 652.749 110.977C645.799 104.445 637.258 99.1433 627.367 95.4433C630.539 93.2968 633.437 90.8882 636.016 88.1688C645.457 87.5303 655.074 88.3886 664.486 90.9126C693.49 98.6774 716.953 114.983 736.248 137.465C758.295 163.15 772.399 192.147 777.852 224.608C883.54 122.25 837.603 48.8183 837.603 48.8183L877.818 0C972.116 91.203 863.03 186.856 779.813 240.501L779.875 241.23L953.305 119.928L1019.34 137.402L994.003 200.835L845.833 248.274C931.834 225.011 1030.01 223.478 1044 330.315L980.831 333.502C980.831 333.502 947.77 248.98 793.564 278.572C819.12 297.677 837.731 322.479 849.994 352.25C863.245 384.439 867.778 417.641 859.248 451.839ZM549.801 277.373C518.126 252.63 488.398 215.542 482.168 192.291C476.534 171.265 481.091 149.671 495.412 131.584C484.684 131.281 474.738 128.228 465.887 121.11C454.855 112.225 447.603 100.6 441.676 87.9825C440.768 86.0389 441.951 85.6917 443.069 85.3634C443.287 85.2996 443.501 85.2365 443.698 85.1625C452.791 81.7392 462.102 79.2881 471.822 78.5265C476.599 78.1607 481.208 78.3041 485.614 78.981C483.812 72.1502 482.821 65.1024 482.275 57.9353C482.116 55.812 483.326 55.9049 484.487 55.9941C484.718 56.0118 484.947 56.0294 485.164 56.0294C494.867 56.0703 504.455 57.0854 513.816 59.8445C518.495 61.2173 522.812 63.0209 526.743 65.2759C526.948 62.4784 527.36 59.6401 527.973 56.7477C530.013 47.19 533.667 38.259 538.238 29.6769C538.336 29.4921 538.425 29.2883 538.515 29.0822C538.984 28.0084 539.481 26.8734 541.284 28.0337C551.598 34.6731 560.99 42.2417 568.095 52.2369C569.808 49.2383 571.832 46.3163 574.169 43.4845C580.396 35.9534 587.763 29.7569 595.786 24.284C595.966 24.1633 596.147 24.02 596.33 23.8754C597.243 23.1527 598.198 22.3972 599.251 24.2555C603.119 31.0258 606.472 37.9778 608.844 45.2651C611.962 42.9204 615.414 40.8491 619.183 39.0412C627.981 34.8408 637.283 32.3048 646.857 30.7264C647.072 30.6931 647.298 30.6392 647.527 30.5847C648.654 30.3163 649.834 30.0352 650.018 32.1576C651.207 46.045 650.725 59.7418 645.614 72.9522C643.302 78.908 640.048 83.9181 636.016 88.1688C599.337 90.6495 565.322 115.723 556.356 153.491C551.713 173.087 550.776 192.947 550.549 212.906C550.468 220.029 550.462 227.154 550.456 234.279C550.443 248.646 550.431 263.015 549.801 277.373ZM573.04 292.91C565.386 288.721 557.536 283.415 549.801 277.373C549.548 283.137 549.195 288.9 548.703 294.66C547.803 305.125 546.258 315.305 543.986 325.17C538.109 330.9 532.004 336.457 525.692 341.854C508.047 356.966 489.477 370.344 470.076 382.116C474.804 371.225 477.709 359.579 479.492 347.449C485.97 303.277 470.026 269.059 433.868 243.871C411.261 228.15 385.71 219.317 359.225 212.638C337.485 207.147 315.666 204.059 293.694 203.966C318.302 192.933 335.436 168.264 335.436 139.595C335.436 100.634 303.792 69.0593 264.747 69.0593C225.701 69.0593 194.057 100.634 194.057 139.595C194.057 143.492 194.385 147.322 194.986 151.056H183.022C183.637 147.322 183.951 143.506 183.951 139.595C183.951 100.634 152.307 69.0593 113.262 69.0593C74.216 69.0593 42.5725 100.634 42.5725 139.595C42.5725 178.556 74.216 210.13 113.262 210.13C117.14 210.13 120.937 209.817 124.652 209.217V221.128C120.951 220.528 117.14 220.215 113.262 220.215C74.216 220.215 42.5725 251.789 42.5725 290.75C42.5725 329.711 74.216 361.286 113.262 361.286C115.059 361.286 116.841 361.219 118.604 361.088C95.9995 378.215 84.9319 400.84 87.1863 429.604C88.1323 441.705 90.9813 453.072 95.1821 463.904C63.8736 463.404 12.0035 465.409 1.7928 495.53C-10.6734 532.304 45.4216 557.703 60.5917 564.572L60.5951 564.573C61.9527 565.188 62.9822 565.654 63.6051 565.967C183.829 625.347 309.223 640.502 438.926 605.44C519.618 583.652 590.773 543.762 647.345 480.63C651.626 475.859 655.739 470.994 659.668 466.027C647.463 457.344 635.198 448.748 622.7 440.504C604.006 428.187 583.638 418.892 561.568 414.026C540.846 409.47 519.944 409.746 498.995 412.148C497.85 412.276 496.713 412.38 495.06 412.532L494.378 412.595C495.172 411.724 495.929 410.89 496.66 410.084C498.682 407.856 500.506 405.847 502.368 403.886C524.081 380.963 537.24 354.458 543.986 325.17C554.433 314.984 564.159 304.254 573.04 292.91ZM118.604 361.088C118.927 360.843 119.252 360.6 119.579 360.357C123.195 357.702 126.925 355.06 130.938 353.13C135.051 351.186 135.003 349.131 133.358 345.331C124.348 324.555 121.292 303.351 129.907 281.57C136.226 265.59 147.149 253.214 160.737 243.152C188.546 222.552 220.576 212.731 254.208 207.122C267.435 204.921 280.592 203.911 293.694 203.966C284.859 207.927 275.061 210.13 264.747 210.13C260.718 210.13 256.757 209.79 252.906 209.136V221.196C256.757 220.542 260.718 220.201 264.747 220.201C303.792 220.201 335.436 251.776 335.408 290.75C335.408 329.711 303.765 361.286 264.719 361.286C225.674 361.286 194.03 329.711 194.03 290.75C194.03 286.757 194.371 282.846 195.013 279.031H182.968C183.61 282.846 183.951 286.757 183.951 290.75C183.951 327.918 155.154 358.364 118.604 361.088ZM95.1821 463.904C99.2522 463.969 102.975 464.076 106.213 464.17L106.218 464.17L106.221 464.17H106.222H106.223H106.225H106.226C111.209 464.314 115.044 464.424 117.233 464.297C192.564 459.876 267.757 454.049 341.186 435.326C387.088 423.607 430.325 406.235 470.076 382.116C466.576 390.178 462.077 397.826 456.293 404.95C442.292 422.201 424.038 432.529 402.356 436.942C401.523 437.113 400.708 437.297 399.719 437.522L399.714 437.523C398.983 437.689 398.156 437.876 397.156 438.095C409.815 451.437 418.326 465.976 422.248 483.034C426.693 502.426 424.503 521.234 417.67 539.746C411.642 556.061 403.255 570.922 391.492 583.753C373.021 603.872 349.775 613.525 322.84 614.996C299.725 616.25 277.519 611.666 255.664 604.473C197.878 585.448 150.349 552.496 115.826 501.863C107.58 489.773 100.356 477.244 95.1821 463.904ZM573.04 292.91C587.791 300.984 601.807 304.907 612.843 301.95C653.051 291.177 681.443 179.889 671.195 141.641C668.05 129.904 661.727 119.414 652.749 110.977C648.707 110.85 644.665 110.726 640.622 110.602C630.51 110.302 627.573 112.891 626.68 123.104C625.999 130.836 625.356 138.572 624.713 146.308C623.427 161.778 622.141 177.248 620.557 192.692C619.711 200.677 618.067 208.753 615.41 216.323C605.386 244.721 590.927 270.061 573.04 292.91ZM484.621 462.404C470.312 455.482 455.296 451.312 439.524 449.687C438.936 449.6 438.347 449.523 437.757 449.445C436.306 449.254 434.85 449.063 433.394 448.727C430.102 447.934 429.183 449.192 429.165 452.435C429.121 467.455 429.901 482.348 433.789 496.953C439.186 517.256 449.374 534.087 467.561 545.436C486.154 556.993 506.788 561.667 528.207 563.853C531.484 564.177 531.388 562.282 531.297 560.485C531.279 560.129 531.261 559.777 531.27 559.447C531.606 544.406 530.435 529.548 526.568 514.95C520.292 491.247 507.055 473.253 484.621 462.404Z" fill="#FF6EFD"/>
</svg>
