<svg width="156" height="27" viewBox="0 0 156 27" fill="none" xmlns="http://www.w3.org/2000/svg">
<path d="M4.55911 15.8652H6.99268C11.3978 15.8652 14.3242 13.9245 14.3242 9.95071C14.3242 5.60724 10.8125 4.43666 6.99268 4.43666H0.770119V26H4.5283L4.55911 15.8652ZM4.55911 12.9388V7.36311H6.99268C9.0566 7.33231 10.5352 7.82518 10.5352 10.1355C10.5352 12.4767 9.0566 12.9388 6.99268 12.9388H4.55911ZM28.789 23.0735H22.32L22.5048 4.43666H18.531V26H28.7582L28.789 23.0735ZM50.6575 7.70197C51.1812 4.22103 49.4561 2.89642 47.9159 2.89642C44.6197 2.89642 41.6009 6.77782 37.2574 6.77782C35.8096 6.77782 34.2385 5.79207 35.2551 3.54332L35.1935 3.45091C34.6698 4.31344 34.1461 6.28495 34.1461 8.44128C34.1461 9.82749 34.8854 11.7066 36.4257 11.7066C39.537 11.7066 45.051 3.26608 47.423 3.29688C47.7926 3.29688 48.0083 3.45091 48.0083 4.00539C47.8851 8.53369 32.1438 14.7255 32.1438 21.9646C32.1438 24.3057 33.7149 26.9858 37.319 26.9858C39.7218 26.9858 43.1719 20.6708 46.3756 10.9673H46.7145L42.217 23.6896C43.0487 25.2607 45.1434 26.6161 46.8685 26.6161C51.1504 26.6161 55.4322 19.0073 52.5366 17.2822C51.3352 16.5737 48.6244 18.6377 47.2382 20.6092L47.3614 20.7324C47.9467 20.0239 48.2239 19.9623 48.7168 20.0239C50.3186 20.1779 49.3637 26.7393 47.2073 26.154C46.2832 25.9076 46.0984 24.2441 46.9301 20.948C47.7002 17.9908 50.257 10.2588 50.6575 7.70197ZM47.269 6.71621C45.2975 13.3392 42.8331 22.057 38.6744 22.057C37.3498 22.057 36.7337 21.1328 36.7953 19.7466C37.0418 14.1402 42.0013 11.8914 47.1149 6.56219L47.269 6.71621ZM64.3574 4.43666H57.2415V26H60.9689L61.1845 5.85368L69.3478 26H76.4329L76.6793 4.43666H72.7055V25.0759L64.3574 4.43666ZM88.0388 2.71159C88.3161 4.19022 88.4701 5.91529 87.6384 7.02426C87.2379 7.51714 86.2522 7.8868 85.2048 7.8868C84.1882 7.8868 81.385 8.01001 82.6788 5.73046L82.5864 5.69966L81.0461 8.84174C80.2144 10.5668 80.8305 12.6615 82.5864 12.3227C85.6977 11.7066 87.7616 9.98152 91.951 7.85599C89.5175 9.39623 81.3542 14.2634 81.3542 19.9623C81.3542 23.7821 84.9892 26.7085 89.5483 26.7085C91.5506 26.7085 93.6145 26.154 94.7235 25.1683L97.1262 16.7278L97.003 16.6662C95.432 21.2253 89.7639 25.9076 87.4227 25.9076C85.2664 25.9076 85.328 21.9954 85.328 21.1328C85.328 12.7231 91.1501 7.33231 95.0315 7.33231C97.157 7.33231 95.4628 11.2445 95.0315 11.8298L95.1547 11.8914L100.515 4.99115C97.3727 5.54563 91.951 6.50058 85.5744 8.81094C90.9961 5.9769 92.6595 2.83481 92.7212 0.000773251L88.0388 2.71159ZM117.027 4.43666L113.823 25.1067L110.589 4.43666H103.565V26H107.2L107.416 7.9484L110.219 26H117.52L120.261 8.37967V26H123.927L124.174 4.43666H117.027ZM133.225 4.43666H129.436V26H133.256L133.225 4.43666ZM138.178 26H142.152L146.742 17.7443H146.957L151.547 26H155.521L149.545 15.2183L155.521 4.43666H151.547L146.957 12.6923H146.742L142.152 4.43666H138.178L144.154 15.2183L138.178 26Z" fill="black"/>
</svg>
