<svg width="236" height="236" viewBox="0 0 236 236" fill="none" xmlns="http://www.w3.org/2000/svg">
<path d="M179.036 122.061C175.789 122.061 172.598 122.336 169.494 122.864V113.125C172.598 113.653 175.789 113.928 179.036 113.928C210.5 113.928 236 88.4285 236 56.964C236 25.4995 210.5 0 179.036 0C147.572 0 122.072 25.4995 122.072 56.964C122.072 60.1116 122.336 63.2041 122.82 66.2196H113.18C113.675 63.2041 113.928 60.1226 113.928 56.964C113.928 25.4995 88.4285 0 56.964 0C25.4995 0 0 25.4995 0 56.964C0 88.4285 25.4995 113.928 56.964 113.928C60.0895 113.928 63.149 113.675 66.1425 113.191V122.809C63.16 122.325 60.0895 122.072 56.964 122.072C25.4995 122.072 0 147.572 0 179.036C0 210.5 25.4995 236 56.964 236C88.4285 236 113.928 210.5 113.928 179.036C113.928 175.811 113.653 172.653 113.136 169.571H122.842C122.325 172.653 122.05 175.811 122.05 179.036C122.05 210.5 147.55 236 179.014 236C210.478 236 235.978 210.5 235.978 179.036C236 147.561 210.5 122.061 179.036 122.061Z" fill="#FF6EFD"/>
</svg>
