<svg width="220" height="247" viewBox="0 0 220 247" fill="none" xmlns="http://www.w3.org/2000/svg">
<path d="M190.155 119.527C201.621 114.458 210.494 106.188 218.441 96.7519C219.9 95.016 218.282 94.5543 217.358 93.878C210.379 88.8746 202.971 84.6402 194.836 81.7627C191.346 80.5356 187.889 79.6715 184.47 79.1872C187.546 73.142 189.799 66.693 191.615 60.035C192.22 57.849 190.557 58.1067 189.429 57.8849C180.982 56.2887 172.494 55.5565 163.884 56.3721C160.649 56.6818 157.554 57.2441 154.605 58.0483C156.414 47.3466 155.273 36.7325 152.973 26.1225C152.493 23.9116 151.135 24.9037 150.039 25.2447C141.806 27.7544 133.93 31.057 126.673 35.7622C124.478 37.1883 122.445 38.7072 120.566 40.3296C119.517 36.4579 117.944 32.6276 115.875 28.8404C111.743 21.2551 106.378 14.6193 100.331 8.52106C99.5156 7.70669 98.8044 6.19308 97.3299 7.9059C93.1863 12.7331 89.3961 17.7644 86.2486 23.1667C83.9151 19.9859 81.1199 17.0113 77.9013 14.2506C71.3419 8.64426 63.9811 4.35157 56.1479 0.803099C55.1067 0.3309 53.8914 -0.829124 53.1177 1.30255C48.9303 12.9086 46.1939 24.7221 47.5372 37.1865C48.6216 47.1807 52.9359 55.3154 59.4602 62.2193C39.1782 64.5761 22.8118 75.2385 13.179 91.9229C-5.08784 123.562 -5.57437 223.911 26.3314 242.331C58.2372 260.752 145.653 208.874 163.176 178.524C172.716 162 173.539 141.677 164.659 122.182C173.191 123.828 181.67 123.266 190.155 119.527Z" fill="#FED700"/>
</svg>
