<svg width="76" height="81" viewBox="0 0 76 81" fill="none" xmlns="http://www.w3.org/2000/svg">
<rect x="76" y="81" width="9" height="9" transform="rotate(-180 76 81)" fill="white"/>
<rect x="67" y="72" width="9" height="9" transform="rotate(-180 67 72)" fill="white"/>
<rect x="58" y="63" width="9" height="9" transform="rotate(-180 58 63)" fill="white"/>
<rect x="49" y="54" width="9" height="9" transform="rotate(-180 49 54)" fill="white"/>
<rect x="40" y="45" width="9" height="9" transform="rotate(-180 40 45)" fill="white"/>
<rect x="31" y="36" width="9" height="9" transform="rotate(-180 31 36)" fill="white"/>
<rect x="22" y="27" width="9" height="9" transform="rotate(-180 22 27)" fill="white"/>
<rect x="13" y="18" width="9" height="9" transform="rotate(-180 13 18)" fill="white"/>
<rect x="9" y="78" width="9" height="60" transform="rotate(-180 9 78)" fill="white"/>
<rect x="73" width="9" height="60" transform="rotate(90 73 0)" fill="white"/>
</svg>
